<svg id="图层_2" data-name="图层 2" xmlns="http://www.w3.org/2000/svg" xmlns:xlink="http://www.w3.org/1999/xlink" viewBox="0 0 1000 700"><defs><style>.cls-1{fill:none;}.cls-2{clip-path:url(#clip-path);}.cls-3{fill:url(#未命名的渐变_15);}.cls-4{clip-path:url(#clip-path-2);}.cls-5{fill:url(#未命名的渐变_16);}.cls-6{clip-path:url(#clip-path-3);}.cls-7{fill:url(#未命名的渐变_12);}.cls-8{fill:url(#未命名的渐变_17);}</style><clipPath id="clip-path"><polygon class="cls-1" points="529.04 331.72 573.49 251.29 648.09 255.29 700.26 337.83 656.67 246.65 655.11 243.39 651.47 243.59 575.5 247.65 637.5 135.49 353.35 262.5 498.1 262.5 529.04 331.72"/></clipPath><linearGradient id="未命名的渐变_15" x1="274.71" y1="516.86" x2="708.15" y2="83.42" gradientUnits="userSpaceOnUse"><stop offset="0" stop-color="#e39f00"/><stop offset="0.48" stop-color="#e4665f"/><stop offset="0.88" stop-color="#e539a9"/></linearGradient><clipPath id="clip-path-2"><polygon class="cls-1" points="482.47 280.6 374 476.84 658.16 349.82 513.41 349.82 482.47 280.6"/></clipPath><linearGradient id="未命名的渐变_16" x1="274.71" y1="516.86" x2="708.15" y2="83.42" gradientUnits="userSpaceOnUse"><stop offset="0" stop-color="#e39f00"/><stop offset="0.18" stop-color="#e79235"/><stop offset="0.38" stop-color="#eb8565"/><stop offset="0.57" stop-color="#ee7c8c"/><stop offset="0.74" stop-color="#f075a7"/><stop offset="0.89" stop-color="#f270b8"/><stop offset="1" stop-color="#f26fbe"/></linearGradient><clipPath id="clip-path-3"><polygon class="cls-1" points="319.61 357.04 267.44 274.49 311.04 365.67 312.59 368.93 316.23 368.74 427.19 362.8 319.61 357.04"/></clipPath><linearGradient id="未命名的渐变_12" x1="274.71" y1="516.86" x2="708.15" y2="83.42" gradientUnits="userSpaceOnUse"><stop offset="0" stop-color="#e39f00"/><stop offset="0.59" stop-color="#ec8274"/><stop offset="1" stop-color="#f26fbe"/></linearGradient><linearGradient id="未命名的渐变_17" x1="220.82" y1="534.02" x2="779.18" y2="534.02" gradientUnits="userSpaceOnUse"><stop offset="0" stop-color="#e39f00"/><stop offset="0.29" stop-color="#e79138"/><stop offset="1" stop-color="#f26fbe"/></linearGradient></defs><g class="cls-2"><rect class="cls-3" x="251.84" y="106.29" width="479.19" height="387.69"/></g><g class="cls-4"><rect class="cls-5" x="251.84" y="106.29" width="479.19" height="387.69"/></g><g class="cls-6"><rect class="cls-7" x="251.84" y="106.29" width="479.19" height="387.69"/></g><path class="cls-8" d="M269.18,503.54a13.62,13.62,0,0,1,13.67,13.66v47.31H234.49a13.64,13.64,0,0,1-13.67-13.66v-22.5H271.5V517.2a2.34,2.34,0,0,0-2.32-2.31H220.82V503.54Zm2.32,49.62V539.7H232.18v11.15a2.21,2.21,0,0,0,.68,1.63,2.24,2.24,0,0,0,1.63.68Zm109.44-49.62H393l-22.92,61h-9.25l-20.5-45.31L321,564.51l-.21-.1.11.1h-9.15l-24-61h12.09L316.39,544l17.55-40.47h12.94L365.48,544Zm64.13,0a13.64,13.64,0,0,1,13.67,13.66v22.5H408.06v11.15a2.34,2.34,0,0,0,2.32,2.31h48.36v11.35H410.38a13.62,13.62,0,0,1-13.67-13.66V517.2a13.62,13.62,0,0,1,13.67-13.66Zm-37,24.81h39.32V517.2a2.21,2.21,0,0,0-.68-1.63,2.25,2.25,0,0,0-1.63-.68H410.38a2.34,2.34,0,0,0-2.32,2.31ZM531.17,517.2v2.32H519.82V517.2a2.32,2.32,0,0,0-2.31-2.31h-34.7a2.32,2.32,0,0,0-2.31,2.31V526a2.34,2.34,0,0,0,2.31,2.32h34.7A13.62,13.62,0,0,1,531.17,542v8.84a13.62,13.62,0,0,1-13.66,13.66h-34.7a13.64,13.64,0,0,1-13.67-13.66v-2.32H480.5v2.32a2.32,2.32,0,0,0,2.31,2.31h34.7a2.32,2.32,0,0,0,2.31-2.31V542a2.32,2.32,0,0,0-2.31-2.31h-34.7A13.64,13.64,0,0,1,469.14,526V517.2a13.64,13.64,0,0,1,13.67-13.66h34.7a13.62,13.62,0,0,1,13.66,13.66Zm24.08-13.66h34.69a13.64,13.64,0,0,1,13.67,13.66v33.65a13.64,13.64,0,0,1-13.67,13.66H555.25a13.64,13.64,0,0,1-13.67-13.66V517.2a13.64,13.64,0,0,1,13.67-13.66Zm34.69,11.35H555.25a2.34,2.34,0,0,0-2.32,2.31v33.65a2.34,2.34,0,0,0,2.32,2.31h34.69a2.25,2.25,0,0,0,1.63-.68,2.21,2.21,0,0,0,.68-1.63V517.2a2.21,2.21,0,0,0-.68-1.63A2.25,2.25,0,0,0,589.94,514.89Zm102.61-11.35a13.64,13.64,0,0,1,13.67,13.66v47.31H695V517.2a2.22,2.22,0,0,0-.69-1.63,2.35,2.35,0,0,0-1.73-.68H668.47a2.32,2.32,0,0,0-2.31,2.31v47.31H654.81V517.2a2.34,2.34,0,0,0-2.32-2.31H628.31A2.32,2.32,0,0,0,626,517.2v47.31H614.65v-61Zm73,0a13.64,13.64,0,0,1,13.67,13.66v22.5H728.5v11.15a2.34,2.34,0,0,0,2.32,2.31h48.36v11.35H730.82a13.64,13.64,0,0,1-13.67-13.66V517.2a13.64,13.64,0,0,1,13.67-13.66Zm-37,24.81h39.32V517.2a2.21,2.21,0,0,0-.68-1.63,2.25,2.25,0,0,0-1.63-.68H730.82a2.34,2.34,0,0,0-2.32,2.31Z"/></svg>